<?xml version="1.0" encoding="UTF-8" standalone="no"?>
<svg
   xmlns:dc="http://purl.org/dc/elements/1.1/"
   xmlns:cc="http://creativecommons.org/ns#"
   xmlns:rdf="http://www.w3.org/1999/02/22-rdf-syntax-ns#"
   xmlns:svg="http://www.w3.org/2000/svg"
   xmlns="http://www.w3.org/2000/svg"
   version="1.1"
   id="svg2"
   xml:space="preserve"
   width="320"
   height="320"
   viewBox="0 0 320 320"><metadata
     id="metadata8"><rdf:RDF><cc:Work
         rdf:about=""><dc:format>image/svg+xml</dc:format><dc:type
           rdf:resource="http://purl.org/dc/dcmitype/StillImage" /><dc:title></dc:title></cc:Work></rdf:RDF></metadata><defs
     id="defs6" /><g
     id="g10"
     transform="matrix(1.2274011,0,0,1.2274011,-0.3129341,-58.197088)"><g
       id="g12"><path
         d="m 109.797,213.48 c 0.566,0.848 1.391,1.047 2.039,1.489 3.476,2.343 5.754,5.484 6.539,9.644 0.09,0.469 0.156,0.946 0.207,1.422 0.09,0.848 0.531,1.012 1.324,0.844 4.071,-0.84 8.145,-1.645 12.219,-2.449 0.605,-0.118 1.063,-0.352 1.16,-1.012 0.238,-1.621 0.469,-3.242 0.707,-4.883 -1.222,-0.117 -2.125,0.192 -3.023,0.52 -1.227,0.453 -2.094,1.449 -3.18,2.117 -2.387,1.484 -4.422,0.582 -4.922,-2.195 -0.312,-1.715 -0.07,-3.422 0.805,-4.875 1.266,-2.098 0.644,-4.215 0.644,-6.559 -5.105,1.769 -10.164,2.934 -14.519,5.937 m 46.555,-31.238 c -4.372,2.238 -5.762,2.27 -6.157,1.789 -0.406,-0.496 0.067,-1.765 0.254,-2.277 0.219,-0.582 0.485,-1 1.215,-2 0.469,-0.641 1.102,-1.481 1.883,-2.461 -4.875,-11.105 -11.078,-19.246 -17.266,-25.273 -0.347,-0.336 -0.691,-0.668 -1.043,-0.993 -4.152,6.516 -8.992,13.477 -14.617,20.676 -5.687,7.27 -11.34,13.707 -16.715,19.352 3.446,0.062 6.203,-0.719 8.813,-2.117 0.988,-0.528 1.941,-1.114 2.922,-1.653 1.144,-0.629 2.375,-0.953 3.683,-0.922 1.934,0.051 2.891,1.274 2.492,3.184 -0.343,1.668 -1.382,2.855 -2.714,3.82 -2.274,1.637 -4.606,3.203 -7.129,4.418 -1.223,0.59 -1.496,1.223 -0.864,2.367 0.301,0.543 0.25,1.254 0.801,1.707 0.992,-0.015 1.817,-0.562 2.707,-0.886 4.219,-1.543 8.469,-2.946 13.024,-2.977 1.105,-0.008 1.254,-0.465 1.265,-1.449 0.117,-7.531 1.196,-14.981 2.043,-22.445 0.137,-1.204 0.094,-2.414 0.024,-3.625 -0.172,-2.965 1.074,-5.266 3.351,-6.309 2.309,-1.063 5.121,-0.441 7.262,1.633 2.469,2.398 3.68,5.379 2.918,8.711 -0.734,3.207 -1.113,6.441 -1.555,9.676 -0.57,4.21 -2.07,8.308 -4.711,11.636 -2.168,2.742 -2.129,5.891 -2.125,9.324 5.629,-1.625 11.239,-1.808 16.778,-2.503 1.035,-0.129 2.074,-0.161 3.109,0.011 3.082,0.512 4.105,2.782 2.445,5.446 -0.875,1.402 -2.156,2.355 -3.605,3.078 -3.211,1.609 -6.36,3.343 -9.906,4.672 1.339,2.703 2.492,5.328 3.082,8.152 0.226,1.074 1.312,0.879 2.078,1 1.238,0.199 2.484,0.332 3.738,0.297 9,-0.262 16.922,2.894 24.484,7.222 0.914,0.52 1.793,1.114 2.461,1.957 1.735,2.188 0.746,4.61 -1.996,5.145 -1.207,0.23 -2.437,0.117 -3.636,-0.074 -2.922,-0.453 -5.848,-0.906 -8.743,-1.512 -2.379,-0.5 -4.726,-0.723 -7.136,-0.285 -2.907,0.535 -5.821,1.047 -8.68,1.816 -1.184,0.321 -1.691,0.891 -1.738,2.157 -0.106,2.781 -0.293,5.57 -1.012,8.293 -0.543,2.054 -1.504,3.976 -2.793,5.664 -1.789,2.336 -3.824,4.445 -6.094,6.308 -2.574,2.106 -5.5,3.457 -8.824,4.074 -4.867,0.907 -9.758,1.786 -14.332,3.813 -0.652,0.289 -1.359,0.48 -2.055,0.641 -0.656,0.148 -1.277,0.019 -1.722,-0.563 -0.45,-0.59 -0.383,-1.219 -0.024,-1.797 1.606,-2.578 3.141,-5.23 5.992,-6.703 4.223,-2.184 7.895,-5.133 11.473,-8.215 2.023,-1.738 3.434,-3.785 3.496,-6.558 0.035,-1.516 -0.137,-1.766 -1.594,-1.594 -5.488,0.648 -10.691,-0.145 -15.523,-2.91 -0.945,-0.543 -1.434,-0.274 -1.848,0.632 -1.742,3.825 -4.433,7 -6.957,10.313 -2.422,3.18 -4.394,6.703 -6.722,9.957 -0.36,0.5 -0.743,0.988 -1.172,1.43 -2.75,2.832 -6.043,4.113 -10.059,2.988 -5.18,-1.457 -9.703,-4.082 -13.609,-7.77 -1.684,-1.593 -2.692,-3.578 -3.145,-5.82 -0.508,-2.508 0.918,-4.062 3.438,-3.879 2.965,0.219 5.601,1.25 7.906,3.121 1.805,1.461 3.551,2.985 5.168,4.653 0.949,0.976 1.945,1.902 3.141,2.586 1.597,0.918 2.125,0.8 3.109,-0.836 0.492,-0.813 0.894,-1.684 1.215,-2.578 2.226,-6.192 3.594,-12.579 4.179,-19.133 0.04,-0.469 0.004,-0.949 0.004,-1.371 -0.761,-0.426 -1.136,0.109 -1.546,0.437 -4.282,3.399 -8.989,6.117 -13.836,8.594 -5.508,2.812 -11.391,4.187 -17.575,4.176 -2.75,-0.008 -5.422,-0.555 -7.836,-1.934 -2.214,-1.273 -3.984,-2.976 -4.457,-5.644 -0.39,-2.2 0.676,-3.508 2.75,-2.907 4.457,1.285 8.743,0.297 13.036,-0.59 3.761,-0.777 7.398,-2.011 10.871,-3.703 2.3,-1.117 4.64,-2.156 6.941,-3.277 3.199,-1.563 6.613,-2.406 10.106,-2.875 1.363,-0.184 1.734,-0.715 1.679,-1.977 -0.078,-1.89 -0.019,-3.785 -0.019,-5.718 -1.133,-0.055 -1.625,0.668 -2.219,1.133 -2.836,2.214 -5.426,4.73 -8.359,6.828 -2.762,1.976 -5.665,3.601 -9.458,3.261 -2.449,-0.215 -4.722,-1.457 -6.312,-3.336 -0.781,-0.929 -1.289,-1.98 -0.68,-3.25 0.66,-1.371 1.934,-1.527 3.266,-1.503 0.16,0.003 0.324,0.007 0.48,0.046 3.446,0.907 6,-0.597 8.368,-2.91 2.683,-2.629 5.222,-5.41 8.117,-7.828 2.398,-2.004 4.949,-3.797 7.578,-5.476 0.766,-0.493 1.129,-0.977 0.797,-1.958 -0.789,-2.332 -0.352,-3.226 -1.11,-3.789 -0.785,-0.582 -1.371,0.274 -3.894,0.321 -1.988,0.035 -2.582,-0.481 -3.945,-0.032 -1.071,0.352 -1.739,1.012 -2.032,1.297 -8.285,8.168 -17.445,15.266 -26.996,21.879 -3.687,2.551 -7.648,4.66 -11.465,6.996 -0.613,0.375 -1.261,0.707 -2,0.77 -1.238,0.101 -1.832,-0.609 -1.437,-1.774 0.289,-0.851 0.898,-1.507 1.48,-2.164 2.821,-3.175 5.895,-6.093 9.094,-8.878 2.891,-2.52 18.774,-13.614 29.801,-29.559 0.355,-0.512 0.637,-0.93 0.808,-1.188 -5.96,-8.195 -10.292,-14.332 -12.066,-16.711 -0.098,-0.136 -1.238,-1.925 -1.562,-4.257 -0.239,-1.731 0.722,-2.602 2.402,-2.192 1.035,0.254 1.851,0.918 2.66,1.578 2.734,2.231 5.199,4.754 7.492,7.418 2.239,2.602 4.672,5.055 6.547,8.344 6.113,-6.68 11.164,-14.004 16.641,-20.824 -18.598,3.621 -23.168,2.246 -23.946,0.344 -1.433,-3.508 14.254,-6.946 25.207,-22.739 1.715,-2.472 6.09,-9.25 13.192,-12.406 3.019,-1.344 5.945,-1.769 6.894,-1.891 3.016,-0.382 6.739,-0.855 8.891,0.754 3.133,2.34 3.16,9.258 -0.383,16.692 l 4.684,4.226 c 1.379,-2.156 3.316,-5.507 5.043,-9.879 1.851,-4.691 2.492,-8.125 3.297,-8.05 1.785,0.175 3.945,7.843 3.761,14.297 -0.015,0.558 -0.05,1.375 -0.207,2.472 -0.683,4.871 -2.808,8.445 -4.312,10.52 2.215,3.011 4.426,6.023 6.64,9.035 0.344,-0.578 0.868,-1.285 1.649,-1.942 1.047,-0.882 2.176,-1.347 3.141,-1.593 1.015,-0.262 2.007,0.519 2.011,1.566 0.035,5.18 0.254,9.672 0.508,13.305 0.652,9.379 1.262,9.125 2.637,21.789 0.121,1.09 0.648,3.734 1.703,9.023 0.652,3.27 0.875,4.172 1.726,4.973 1.45,1.359 4.098,1.082 9.336,0.473 7.133,-0.832 8.422,-2.188 8.684,-3.149 0.129,-0.484 0.141,-1.402 0.637,-1.566 0.39,-0.133 0.847,0.301 1.117,0.515 1.187,0.965 2.324,1.957 3.219,3.204 2.566,3.578 4.843,7.312 6.933,11.199 2.156,4.019 3.758,8.297 6.09,12.219 0.399,0.671 0.727,1.398 0.981,2.136 1.046,3.055 -0.536,5.114 -3.747,4.762 -1.136,-0.121 -2.14,-0.598 -3.042,-1.231 -1.442,-1.003 -2.899,-2.007 -4.239,-3.136 -1.406,-1.188 -5.461,-4.055 -13.738,-9.594 -10.707,-7.168 -9.602,-5.77 -11.395,-7.387 -4.949,-4.468 -6.304,-8.75 -13.933,-27.304 -2.313,-5.629 -4.195,-10.118 -5.281,-12.692"
         style="fill:#214214;fill-opacity:1;fill-rule:nonzero;stroke:none"
         id="path14" /><path
         d="m 166.441,69.168 c -2.664,-5.324 -2.777,-17.273 2.649,-20.606 4.769,-2.929 10.527,0.477 12.637,2.168 6.832,5.481 10.035,18.801 10.738,27.958 0.851,11.085 -1.379,19.32 -2.098,21.789 -2.601,8.949 -6.808,15.503 -9.922,19.554 -0.488,0.637 -1.394,0.758 -2.043,0.285 -1.273,-0.933 -2.55,-1.867 -3.824,-2.796 0.582,-1.29 1.36,-3.118 2.141,-5.356 0.578,-1.664 1.664,-4.785 2.074,-7.473 0.582,-3.843 -0.227,-6.816 -1.461,-11.168 -1.648,-5.812 -4.75,-12.074 -10.891,-24.355"
         style="fill:#648b15;fill-opacity:1;fill-rule:nonzero;stroke:none"
         id="path16" /><path
         d="m 162.023,246.855 c 3.168,0.172 6.043,0.872 8.922,1.493 1.719,0.367 3.434,0.722 5.168,0.992 4.61,0.726 8.762,2.418 12.012,5.914 4.66,5.016 5.375,12.894 1.574,18.379 -2.847,4.109 -6.804,5.972 -11.797,5.14 -4.691,-0.781 -8.172,-4.378 -9.168,-9.281 -0.191,-0.933 -0.304,-1.898 -0.324,-2.847 -0.047,-2.426 -0.961,-4.555 -2.398,-6.395 -2.153,-2.762 -4.266,-5.582 -7.27,-7.551 -1.058,-0.699 -2.211,-1.543 -1.844,-3.062 0.356,-1.477 1.606,-2.141 2.957,-2.508 0.758,-0.207 1.571,-0.207 2.168,-0.274"
         style="fill:#214214;fill-opacity:1;fill-rule:nonzero;stroke:none"
         id="path18" /><path
         d="m 183.855,61.121 c 1.747,5.102 -0.085,10.352 -4.089,11.715 -4,1.367 -8.657,-1.664 -10.399,-6.77 -1.742,-5.105 0.086,-10.351 4.09,-11.718 4,-1.368 8.656,1.664 10.398,6.773"
         style="fill:#c3ac02;fill-opacity:1;fill-rule:nonzero;stroke:none"
         id="path20" /><path
         d="m 183.469,63.68 c 1.469,3.75 -0.039,7.847 -3.367,9.148 -3.329,1.301 -7.215,-0.687 -8.68,-4.437 -1.469,-3.75 0.039,-7.848 3.367,-9.149 3.328,-1.301 7.215,0.688 8.68,4.438"
         style="fill:#2a1487;fill-opacity:1;fill-rule:nonzero;stroke:none"
         id="path22" /><path
         d="m 187.305,206.965 c 0.066,-0.543 -0.184,-0.66 -0.391,-0.731 -2.285,-0.754 -3.191,-2.488 -3.434,-4.726 -0.464,-4.215 -0.859,-8.438 -1.445,-12.633 -1.371,-9.816 -2.84,-19.621 -4.273,-29.43 -0.508,-3.48 -0.985,-6.965 -1.543,-10.437 -0.16,-0.973 0.047,-1.469 1.039,-1.746 1.379,-0.395 2.722,-0.922 4.07,-1.422 1.445,-0.535 1.504,-0.567 1.91,1.043 1.055,4.183 2.16,8.363 3.032,12.586 1.73,8.383 3.921,16.652 5.707,25.015 1.097,5.161 2.062,10.348 3.046,15.536 0.176,0.933 0.227,1.906 0.211,2.859 -0.031,1.676 -0.808,2.984 -2.429,3.488 -1.039,0.324 -1.582,0.789 -1.856,1.867 -0.457,1.786 -1.754,2.817 -3.539,3.196 -2.351,0.496 -4.73,0.836 -7.137,0.824 -2.785,-0.016 -4.132,-1.074 -4.613,-3.863 -0.691,-4.016 -1.265,-8.055 -1.824,-12.094 -1.438,-10.375 -2.703,-20.578 -3.344,-31.035 -0.375,-6.082 -0.812,-10.067 -0.836,-15.024 0,-0.59 -0.25,-1.437 0.512,-1.687 0.902,-0.297 1.906,-0.309 2.824,-0.02 0.524,0.164 0.477,0.778 0.531,1.239 0.649,5.398 0.891,10.918 1.477,16.324 1.457,13.429 3.309,26.738 4.746,40.176 0.188,1.746 0.238,1.851 1.871,1.632 1.926,-0.257 3.914,-0.281 5.688,-0.937"
         style="fill:#c40000;fill-opacity:1;fill-rule:nonzero;stroke:none"
         id="path24" /><path
         d="m 137.949,66.219 0.281,38.312 c 0.004,0.539 -0.394,1 -0.925,1.086 -5.207,0.836 -9.41,1.996 -12.387,2.945 -11.98,3.829 -20.742,9.586 -28.48,14.747 -2.637,1.757 -4.86,3.347 -6.567,4.609 -0.621,0.457 -1.508,0.148 -1.707,-0.598 -0.859,-3.23 -1.246,-6.629 -2.984,-9.605 -1.719,-2.934 -4.262,-5.082 -6.742,-7.27 -0.559,-0.492 -0.477,-1.383 0.164,-1.757 4.836,-2.829 11.203,-6.692 18.515,-11.52 6.278,-4.145 12.453,-8.266 19.836,-14.195 5.149,-4.137 11.817,-9.914 19.121,-17.504 0.676,-0.703 1.867,-0.227 1.875,0.75"
         style="fill:#c40000;fill-opacity:1;fill-rule:nonzero;stroke:none"
         id="path26" /><path
         d="m 174.578,117.52 c -1.992,-1.446 -4.207,-2.879 -6.648,-4.239 -8.868,-4.933 -17.496,-7.047 -24.297,-7.949 -0.832,-0.105 -1.453,-0.812 -1.477,-1.652 l -1,-37.973 c -0.023,-0.957 1.102,-1.48 1.813,-0.844 6.535,5.852 13.617,11.801 21.269,17.742 4.489,3.485 8.918,6.77 13.278,9.872 0.468,1.378 1.023,3.378 1.285,5.835 0.48,4.586 -0.172,8.18 -0.926,10.532 -0.949,2.953 -2.102,5.82 -3.297,8.676"
         style="fill:#c40000;fill-opacity:1;fill-rule:nonzero;stroke:none"
         id="path28" /><path
         d="m 168,118.887 c 0.762,0.531 0.66,1.679 -0.176,2.082 -0.926,0.445 -1.972,1.078 -3.012,1.976 -1.671,1.45 -2.687,3.043 -3.292,4.25 -0.305,0.614 -1.059,0.828 -1.661,0.504 -7.277,-3.902 -13.468,-4.941 -17.496,-5.219 -19.238,-1.32 -37.32,13.004 -43.144,17.231 -2.227,1.613 -4.102,3.098 -5.563,4.305 -0.601,0.496 -1.508,0.308 -1.871,-0.387 -1.344,-2.578 -2.691,-5.16 -4.035,-7.742 -0.266,-0.504 -0.145,-1.125 0.277,-1.5 8,-7.039 15.516,-11.453 20.891,-14.164 4.078,-2.055 23.937,-12.067 40.77,-8.938 7.996,1.488 14.66,5.301 14.66,5.301 1.394,0.793 2.613,1.578 3.652,2.301"
         style="fill:#c40000;fill-opacity:1;fill-rule:nonzero;stroke:none"
         id="path30" /><path
         d="m 184.688,134.043 c 0,6.023 -4.883,10.906 -10.907,10.906 -6.023,0 -10.902,-4.883 -10.902,-10.906 0,-6.023 4.879,-10.906 10.902,-10.906 6.024,0 10.907,4.883 10.907,10.906"
         style="fill:#c40000;fill-opacity:1;fill-rule:nonzero;stroke:none"
         id="path32" /></g></g></svg>
